# xmcd
#
# Track frame offsets: 
#        150
#        22803
#        41994
#        65005
#        84088
#        101579
#        116538
#        139459
#        159618
#        178018
#        202882
#        219861
#        243691
#        262990
#        297332
#        314983
#
# Disc length: 4539 seconds
#
# Revision: 1
# Processed by: cddbd v1.5.2PL0 Copyright (c) Steve Scherf et al.
# Submitted via: ExactAudioCopy v1.0b3
#
DISCID=ed11b910
DTITLE=Various Artist - Adidas Streetball Challenge 2001
DYEAR=2001
DGENRE=Rap
TTITLE0=Каста - У Подножья Горы
TTITLE1=D.O.B Community - Так Сложилось
TTITLE2=Ю.Г. - Поколение 
TTITLE3=Master Spensor - Поднимите Руки Выше
TTITLE4=Da Budz - Деньги
TTITLE5=Многоточие - Когда-Нибудь feat. Master Spensor
TTITLE6=Так Просто - Огромный Мир
TTITLE7=Max and BHE TELA (M.B.T.) - Одумайтесь
TTITLE8=J.M. Side - Где-То
TTITLE9=White Hot Ice - В Дураках
TTITLE10=B.I.M. - Неделя
TTITLE11=Точный Удар - Я Смотрю В Глаза
TTITLE12=К316 - Душа
TTITLE13=Злой Дух - Выход В...
TTITLE14=Экипаж - Berlin-Moskau feat. Steiner, MC Lunte and Деловой
TTITLE15=Big Black Boots - Если Знаешь Как Жить
EXTD=
EXTT0=
EXTT1=
EXTT2=
EXTT3=
EXTT4=
EXTT5=
EXTT6=
EXTT7=
EXTT8=
EXTT9=
EXTT10=
EXTT11=
EXTT12=
EXTT13=
EXTT14=
EXTT15=
PLAYORDER=
